<svg width="78" height="30" viewBox="0 0 78 30" fill="none" xmlns="http://www.w3.org/2000/svg">
<rect x="41.3999" width="3.6" height="24" fill="#161C24"/>
<path fill-rule="evenodd" clip-rule="evenodd" d="M34.1998 22.2007C32.6956 23.3305 30.8259 24 28.7998 24C23.8292 24 19.7998 19.9706 19.7998 15C19.7998 10.0294 23.8292 6 28.7998 6C30.8259 6 32.6956 6.6695 34.1998 7.79934V6H37.7998V24H34.1998V22.2007ZM34.1998 15C34.1998 17.9823 31.7822 20.4 28.7998 20.4C25.8175 20.4 23.3998 17.9823 23.3998 15C23.3998 12.0177 25.8175 9.6 28.7998 9.6C31.7822 9.6 34.1998 12.0177 34.1998 15Z" fill="#161C24"/>
<path fill-rule="evenodd" clip-rule="evenodd" d="M18 15C18 19.9706 13.9706 24 9 24C6.9739 24 5.10419 23.3305 3.6 22.2007V30H0V6H3.6V7.79934C5.10419 6.6695 6.9739 6 9 6C13.9706 6 18 10.0294 18 15ZM3.6 15C3.6 17.9823 6.01767 20.4 9 20.4C11.9823 20.4 14.4 17.9823 14.4 15C14.4 12.0177 11.9823 9.6 9 9.6C6.01767 9.6 3.6 12.0177 3.6 15Z" fill="#161C24"/>
<path fill-rule="evenodd" clip-rule="evenodd" d="M57 24C60.3855 24 63.3345 22.1307 64.8709 19.3678L61.752 17.5671C60.8387 19.2542 59.0532 20.4 57 20.4C54.4301 20.4 52.2795 18.6048 51.7338 16.2H65.9207C65.973 15.8074 66 15.4069 66 15C66 10.0294 61.9706 6 57 6C52.0294 6 48 10.0294 48 15C48 19.9706 52.0294 24 57 24ZM61.8387 12.6C60.9551 10.8219 59.1203 9.6 57 9.6C54.8797 9.6 53.0449 10.8219 52.1613 12.6H61.8387Z" fill="#161C24"/>
<path d="M68.3999 0H71.9999V6L77.9999 6V9.6H71.9999V18C71.9999 19.3255 73.0744 20.4 74.3999 20.4H77.9999V24H74.3999C71.0862 24 68.3999 21.3137 68.3999 18V0Z" fill="#161C24"/>
</svg>
